# xmcd
#
# Track frame offsets: 
#        150
#        19693
#        31777
#        44208
#        61778
#        77108
#        93684
#        110404
#        129122
#
# Disc length: 1987 seconds
#
# Revision: 0
# Processed by: cddbd v1.5.2PL0 Copyright (c) Steve Scherf et al.
# Submitted via: ExactAudioCopy v0.95b3
#
DISCID=6c07c109
DTITLE=Viking - Do Or Die [FL234CD]
DYEAR=1987
DGENRE=Thrash Metal
TTITLE0=Warlord
TTITLE1=Hellbound
TTITLE2=Militia Of Death
TTITLE3=Prelude , Scavenger
TTITLE4=Valhalla
TTITLE5=Burning From Within
TTITLE6=Berserker
TTITLE7=Killer Unleashed
TTITLE8=Do Or Die
EXTD=
EXTT0=
EXTT1=
EXTT2=
EXTT3=
EXTT4=
EXTT5=
EXTT6=
EXTT7=
EXTT8=
PLAYORDER=
